<svg width="159" height="23" viewBox="0 0 159 23" fill="none" xmlns="http://www.w3.org/2000/svg">
<path d="M7.43841 6.432C8.52641 6.432 9.53441 6.656 10.4624 7.104C11.3904 7.536 12.1264 8.128 12.6704 8.88C13.2144 9.632 13.4864 10.44 13.4864 11.304C13.4864 12.552 13.1264 13.696 12.4064 14.736C11.6864 15.76 10.7664 16.568 9.64641 17.16C8.54241 17.752 7.43041 18.048 6.31041 18.048C5.41441 18.048 4.60641 17.84 3.88641 17.424C3.18241 17.008 2.63041 16.368 2.23041 15.504C1.83041 14.624 1.66241 13.528 1.72641 12.216V1.584H2.63841V8.856C3.13441 8.088 3.80641 7.496 4.65441 7.08C5.51841 6.648 6.44641 6.432 7.43841 6.432ZM2.78241 11.064C2.70241 11.672 2.66241 12.184 2.66241 12.6C2.66241 14.12 3.02241 15.256 3.74241 16.008C4.46241 16.76 5.37441 17.136 6.47841 17.136C7.42241 17.136 8.36641 16.88 9.31041 16.368C10.2704 15.84 11.0544 15.128 11.6624 14.232C12.2864 13.32 12.5984 12.32 12.5984 11.232C12.5984 10.544 12.3664 9.896 11.9024 9.288C11.4384 8.68 10.8064 8.192 10.0064 7.824C9.22241 7.456 8.37441 7.272 7.46241 7.272C6.71041 7.272 5.99041 7.44 5.30241 7.776C4.63041 8.112 4.06241 8.568 3.59841 9.144C3.15041 9.72 2.87841 10.36 2.78241 11.064ZM27.221 6.216C27.253 8.088 26.949 10.128 26.309 12.336C25.669 14.544 24.805 16.432 23.717 18C23.301 18.64 22.741 19.248 22.037 19.824C21.349 20.4 20.605 20.864 19.805 21.216L19.469 20.4C20.077 20.128 20.653 19.776 21.197 19.344C21.757 18.928 22.229 18.48 22.613 18C21.989 17.088 21.229 15.632 20.333 13.632C19.453 11.616 18.589 9.368 17.741 6.888C17.709 6.808 17.733 6.752 17.813 6.72L18.437 6.48C18.469 6.464 18.501 6.464 18.533 6.48C18.565 6.496 18.589 6.52 18.605 6.552C19.885 10.28 21.381 13.816 23.093 17.16C24.197 15.608 25.013 13.872 25.541 11.952C26.085 10.032 26.341 8.144 26.309 6.288C26.309 6.256 26.317 6.232 26.333 6.216C26.365 6.184 26.397 6.168 26.429 6.168L27.077 6.096C27.173 6.096 27.221 6.136 27.221 6.216ZM43.0092 6.288C43.9852 6.288 44.8492 6.544 45.6012 7.056C46.3532 7.568 46.9372 8.288 47.3532 9.216C47.7692 10.128 47.9772 11.192 47.9772 12.408C47.9772 13.512 47.7692 14.488 47.3532 15.336C46.9372 16.168 46.3532 16.816 45.6012 17.28C44.8492 17.728 43.9852 17.952 43.0092 17.952C42.0812 17.952 41.2652 17.728 40.5612 17.28C39.8572 16.816 39.3052 16.168 38.9052 15.336C38.5212 14.488 38.3292 13.512 38.3292 12.408C38.3292 11.192 38.5212 10.128 38.9052 9.216C39.3052 8.288 39.8572 7.568 40.5612 7.056C41.2652 6.544 42.0812 6.288 43.0092 6.288ZM43.0092 7.2C42.2572 7.2 41.5932 7.416 41.0172 7.848C40.4572 8.28 40.0172 8.896 39.6972 9.696C39.3932 10.48 39.2412 11.384 39.2412 12.408C39.2412 13.8 39.5852 14.92 40.2732 15.768C40.9612 16.616 41.8732 17.04 43.0092 17.04C44.2252 17.04 45.2012 16.616 45.9372 15.768C46.6892 14.92 47.0652 13.8 47.0652 12.408C47.0652 11.384 46.8972 10.48 46.5612 9.696C46.2252 8.896 45.7452 8.28 45.1212 7.848C44.5132 7.416 43.8092 7.2 43.0092 7.2ZM60.5384 17.64C60.5384 17.672 60.5224 17.704 60.4904 17.736C60.4744 17.752 60.4504 17.76 60.4184 17.76C58.3384 17.936 56.3544 18.024 54.4664 18.024C53.7144 18.024 53.1544 18.016 52.7864 18L52.1144 17.544C52.0504 17.48 52.0424 17.424 52.0904 17.376C54.5384 13.968 56.7944 10.56 58.8584 7.152H58.1144C57.3624 7.152 56.2024 7.184 54.6344 7.248C54.5544 7.248 54.5144 7.208 54.5144 7.128V6.456C54.5144 6.424 54.5224 6.4 54.5384 6.384C54.5704 6.352 54.6024 6.336 54.6344 6.336C56.3624 6.272 57.6664 6.24 58.5464 6.24H59.3864L60.0584 6.696C60.1224 6.76 60.1384 6.816 60.1064 6.864C58.2344 10 56.0104 13.416 53.4344 17.112C55.6744 17.128 57.9864 17.04 60.3704 16.848C60.4504 16.848 60.4904 16.888 60.4904 16.968L60.5384 17.64ZM76.4939 6.264C76.5259 6.584 76.5419 8.528 76.5419 12.096C76.5419 15.648 76.5259 17.616 76.4939 18H75.5819C75.5979 17.888 75.6059 17.16 75.6059 15.816C75.2059 16.504 74.6139 17.048 73.8299 17.448C73.0459 17.832 72.0699 18.024 70.9019 18.024C70.3739 18.024 69.7979 17.976 69.1739 17.88C68.2299 17.736 67.4139 17.4 66.7259 16.872C66.0379 16.328 65.5099 15.664 65.1419 14.88C64.7899 14.08 64.6139 13.216 64.6139 12.288C64.6139 11.2 64.8299 10.192 65.2619 9.264C65.7099 8.336 66.3099 7.6 67.0619 7.056C67.8139 6.512 68.6219 6.24 69.4859 6.24C70.8459 6.24 72.0699 6.664 73.1579 7.512C74.2619 8.344 75.0779 9.392 75.6059 10.656C75.6059 7.856 75.5979 6.392 75.5819 6.264H76.4939ZM69.2459 16.944C69.8539 17.024 70.3659 17.064 70.7819 17.064C72.3019 17.064 73.4379 16.704 74.1899 15.984C74.9419 15.264 75.3179 14.352 75.3179 13.248C75.3179 12.304 75.0539 11.36 74.5259 10.416C74.0139 9.456 73.3019 8.672 72.3899 8.064C71.4939 7.44 70.5019 7.128 69.4139 7.128C68.7259 7.128 68.0779 7.36 67.4699 7.824C66.8619 8.288 66.3739 8.92 66.0059 9.72C65.6379 10.504 65.4539 11.352 65.4539 12.264C65.4539 13.016 65.6219 13.736 65.9579 14.424C66.2939 15.096 66.7499 15.664 67.3259 16.128C67.9019 16.576 68.5419 16.848 69.2459 16.944ZM85.7131 5.976C87.8091 5.976 89.2811 6.688 90.1291 8.112C90.9931 9.52 91.4251 11.568 91.4251 14.256C91.4251 15.488 91.3691 16.696 91.2571 17.88C91.2411 17.912 91.2171 17.944 91.1851 17.976C91.1531 18.008 91.1211 18.016 91.0891 18L90.4411 17.88C90.4091 17.88 90.3851 17.864 90.3691 17.832C90.3531 17.8 90.3451 17.768 90.3451 17.736C90.4731 16.28 90.5371 15.024 90.5371 13.968C90.5371 11.616 90.1691 9.848 89.4331 8.664C88.7131 7.48 87.4731 6.888 85.7131 6.888C84.5451 6.888 83.5931 7.344 82.8571 8.256C82.1371 9.152 81.7371 10.36 81.6571 11.88V14.352C81.6571 16.656 81.6491 17.872 81.6331 18H80.7211C80.7531 17.552 80.7691 15.568 80.7691 12.048C80.7691 8.48 80.7531 6.552 80.7211 6.264H81.6331C81.6491 6.344 81.6571 7.072 81.6571 8.448C82.0891 7.664 82.6491 7.056 83.3371 6.624C84.0411 6.192 84.8331 5.976 85.7131 5.976ZM107.513 6.264C107.545 6.584 107.561 8.528 107.561 12.096C107.561 15.648 107.545 17.616 107.513 18H106.601C106.617 17.888 106.625 17.16 106.625 15.816C106.225 16.504 105.633 17.048 104.849 17.448C104.065 17.832 103.089 18.024 101.921 18.024C101.393 18.024 100.817 17.976 100.193 17.88C99.249 17.736 98.433 17.4 97.745 16.872C97.057 16.328 96.529 15.664 96.161 14.88C95.809 14.08 95.633 13.216 95.633 12.288C95.633 11.2 95.849 10.192 96.281 9.264C96.729 8.336 97.329 7.6 98.081 7.056C98.833 6.512 99.641 6.24 100.505 6.24C101.865 6.24 103.089 6.664 104.177 7.512C105.281 8.344 106.097 9.392 106.625 10.656C106.625 7.856 106.617 6.392 106.601 6.264H107.513ZM100.265 16.944C100.873 17.024 101.385 17.064 101.801 17.064C103.321 17.064 104.457 16.704 105.209 15.984C105.961 15.264 106.337 14.352 106.337 13.248C106.337 12.304 106.073 11.36 105.545 10.416C105.033 9.456 104.321 8.672 103.409 8.064C102.513 7.44 101.521 7.128 100.433 7.128C99.745 7.128 99.097 7.36 98.489 7.824C97.881 8.288 97.393 8.92 97.025 9.72C96.657 10.504 96.473 11.352 96.473 12.264C96.473 13.016 96.641 13.736 96.977 14.424C97.313 15.096 97.769 15.664 98.345 16.128C98.921 16.576 99.561 16.848 100.265 16.944ZM121.268 6.216C121.3 8.088 120.996 10.128 120.356 12.336C119.716 14.544 118.852 16.432 117.764 18C117.348 18.64 116.788 19.248 116.084 19.824C115.396 20.4 114.652 20.864 113.852 21.216L113.516 20.4C114.124 20.128 114.7 19.776 115.244 19.344C115.804 18.928 116.276 18.48 116.66 18C116.036 17.088 115.276 15.632 114.38 13.632C113.5 11.616 112.636 9.368 111.788 6.888C111.756 6.808 111.78 6.752 111.86 6.72L112.484 6.48C112.516 6.464 112.548 6.464 112.58 6.48C112.612 6.496 112.636 6.52 112.652 6.552C113.932 10.28 115.428 13.816 117.14 17.16C118.244 15.608 119.06 13.872 119.588 11.952C120.132 10.032 120.388 8.144 120.356 6.288C120.356 6.256 120.364 6.232 120.38 6.216C120.412 6.184 120.444 6.168 120.476 6.168L121.124 6.096C121.22 6.096 121.268 6.136 121.268 6.216ZM137.287 12.216C137.351 13.528 137.183 14.624 136.783 15.504C136.383 16.368 135.823 17.008 135.103 17.424C134.399 17.84 133.599 18.048 132.703 18.048C131.583 18.048 130.463 17.752 129.343 17.16C128.239 16.568 127.327 15.76 126.607 14.736C125.887 13.696 125.527 12.552 125.527 11.304C125.527 10.44 125.799 9.632 126.343 8.88C126.887 8.128 127.623 7.536 128.551 7.104C129.479 6.656 130.487 6.432 131.575 6.432C132.567 6.432 133.487 6.648 134.335 7.08C135.199 7.496 135.879 8.088 136.375 8.856V1.584H137.287V12.216ZM126.415 11.232C126.415 12.32 126.719 13.32 127.327 14.232C127.951 15.128 128.735 15.84 129.679 16.368C130.639 16.88 131.591 17.136 132.535 17.136C133.655 17.136 134.567 16.76 135.271 16.008C135.991 15.256 136.351 14.12 136.351 12.6C136.351 12.184 136.311 11.672 136.231 11.064C136.135 10.36 135.855 9.72 135.391 9.144C134.943 8.568 134.375 8.112 133.687 7.776C133.015 7.44 132.303 7.272 131.551 7.272C130.639 7.272 129.783 7.456 128.983 7.824C128.199 8.192 127.575 8.68 127.111 9.288C126.647 9.896 126.415 10.544 126.415 11.232ZM142.094 5.448C142.254 5.4 142.374 5.312 142.454 5.184C142.55 5.04 142.598 4.888 142.598 4.728C142.598 4.52 142.518 4.344 142.358 4.2C142.214 4.04 142.054 3.96 141.878 3.96C141.686 3.96 141.534 4.024 141.422 4.152C141.31 4.28 141.254 4.44 141.254 4.632C141.254 4.872 141.334 5.088 141.494 5.28C141.67 5.456 141.87 5.512 142.094 5.448ZM141.542 18C141.574 17.552 141.59 15.568 141.59 12.048C141.59 8.48 141.574 6.552 141.542 6.264H142.454C142.486 6.584 142.502 8.528 142.502 12.096C142.502 15.648 142.486 17.616 142.454 18H141.542ZM151.554 5.976C153.65 5.976 155.122 6.688 155.97 8.112C156.834 9.52 157.266 11.568 157.266 14.256C157.266 15.488 157.21 16.696 157.098 17.88C157.082 17.912 157.058 17.944 157.026 17.976C156.994 18.008 156.962 18.016 156.93 18L156.282 17.88C156.25 17.88 156.226 17.864 156.21 17.832C156.194 17.8 156.186 17.768 156.186 17.736C156.314 16.28 156.378 15.024 156.378 13.968C156.378 11.616 156.01 9.848 155.274 8.664C154.554 7.48 153.314 6.888 151.554 6.888C150.386 6.888 149.434 7.344 148.698 8.256C147.978 9.152 147.578 10.36 147.498 11.88V14.352C147.498 16.656 147.49 17.872 147.474 18H146.562C146.594 17.552 146.61 15.568 146.61 12.048C146.61 8.48 146.594 6.552 146.562 6.264H147.474C147.49 6.344 147.498 7.072 147.498 8.448C147.93 7.664 148.49 7.056 149.178 6.624C149.882 6.192 150.674 5.976 151.554 5.976Z" fill="#893591"/>
<path d="M10.4624 7.104L10.0276 8.00464L10.0404 8.01058L10.4624 7.104ZM12.6704 8.88L11.8602 9.46612L11.8602 9.46612L12.6704 8.88ZM12.4064 14.736L13.2245 15.3112L13.2286 15.3052L12.4064 14.736ZM9.64641 17.16L9.17909 16.2759L9.17383 16.2787L9.64641 17.16ZM3.88641 17.424L3.37765 18.285L3.38613 18.2899L3.88641 17.424ZM2.23041 15.504L1.32002 15.9178L1.32294 15.9241L2.23041 15.504ZM1.72641 12.216L2.72522 12.2647L2.72641 12.2404V12.216H1.72641ZM1.72641 1.584V0.584H0.726407V1.584H1.72641ZM2.63841 1.584H3.63841V0.584H2.63841V1.584ZM2.63841 8.856H1.63841V12.2476L3.47845 9.39853L2.63841 8.856ZM4.65441 7.08L5.09484 7.97781L5.10162 7.97443L4.65441 7.08ZM2.78241 11.064L1.79157 10.9289L1.79095 10.9335L2.78241 11.064ZM3.74241 16.008L3.0201 16.6996L3.0201 16.6996L3.74241 16.008ZM9.31041 16.368L9.78718 17.247L9.79233 17.2442L9.31041 16.368ZM11.6624 14.232L10.8371 13.6673L10.8349 13.6705L11.6624 14.232ZM11.9024 9.288L12.6974 8.68133L12.6974 8.68133L11.9024 9.288ZM10.0064 7.824L9.58149 8.72926L9.5885 8.73249L10.0064 7.824ZM5.30241 7.776L4.86355 6.87739L4.85519 6.88157L5.30241 7.776ZM3.59841 9.144L2.81965 8.51667L2.8143 8.52332L2.80905 8.53006L3.59841 9.144ZM7.43841 7.432C8.38446 7.432 9.24279 7.62565 10.0277 8.00455L10.8972 6.20345C9.82603 5.68635 8.66835 5.432 7.43841 5.432V7.432ZM10.0404 8.01058C10.83 8.37819 11.4262 8.86615 11.8602 9.46612L13.4806 8.29388C12.8267 7.38985 11.9508 6.69381 10.8844 6.19742L10.0404 8.01058ZM11.8602 9.46612C12.2905 10.061 12.4864 10.6664 12.4864 11.304H14.4864C14.4864 10.2136 14.1383 9.20302 13.4806 8.29388L11.8602 9.46612ZM12.4864 11.304C12.4864 12.3457 12.1901 13.2916 11.5842 14.1668L13.2286 15.3052C14.0627 14.1004 14.4864 12.7583 14.4864 11.304H12.4864ZM11.5884 14.1608C10.9604 15.054 10.1612 15.7568 9.1791 16.2759L10.1137 18.0441C11.3716 17.3792 12.4124 16.466 13.2244 15.3112L11.5884 14.1608ZM9.17383 16.2787C8.19766 16.8022 7.24673 17.048 6.31041 17.048V19.048C7.61408 19.048 8.88715 18.7018 10.119 18.0413L9.17383 16.2787ZM6.31041 17.048C5.57598 17.048 4.94286 16.8795 4.38668 16.5581L3.38613 18.2899C4.26995 18.8005 5.25283 19.048 6.31041 19.048V17.048ZM4.39514 16.5631C3.89298 16.2663 3.4671 15.795 3.13787 15.0839L1.32294 15.9241C1.79372 16.941 2.47183 17.7497 3.37768 18.2849L4.39514 16.5631ZM3.14077 15.0902C2.82597 14.3976 2.66633 13.472 2.72522 12.2647L0.727594 12.1673C0.658487 13.584 0.83484 14.8504 1.32004 15.9178L3.14077 15.0902ZM2.72641 12.216V1.584H0.726407V12.216H2.72641ZM1.72641 2.584H2.63841V0.584H1.72641V2.584ZM1.63841 1.584V8.856H3.63841V1.584H1.63841ZM3.47845 9.39853C3.87259 8.78824 4.40415 8.31661 5.09483 7.97779L4.21398 6.18221C3.20866 6.67539 2.39622 7.38776 1.79837 8.31347L3.47845 9.39853ZM5.10162 7.97443C5.82295 7.61376 6.59733 7.432 7.43841 7.432V5.432C6.29549 5.432 5.21387 5.68224 4.20719 6.18557L5.10162 7.97443ZM1.79095 10.9335C1.70766 11.5666 1.66241 12.1252 1.66241 12.6H3.66241C3.66241 12.2428 3.69715 11.7774 3.77386 11.1945L1.79095 10.9335ZM1.66241 12.6C1.66241 14.2601 2.05444 15.691 3.0201 16.6996L4.46471 15.3164C3.99038 14.821 3.66241 13.9799 3.66241 12.6H1.66241ZM3.0201 16.6996C3.9411 17.6615 5.12007 18.136 6.47841 18.136V16.136C5.62875 16.136 4.98372 15.8585 4.46471 15.3164L3.0201 16.6996ZM6.47841 18.136C7.61066 18.136 8.71718 17.8274 9.78717 17.247L8.83364 15.489C8.01563 15.9326 7.23415 16.136 6.47841 16.136V18.136ZM9.79233 17.2442C10.8891 16.641 11.7921 15.8218 12.4899 14.7935L10.8349 13.6705C10.3167 14.4342 9.65176 15.039 8.82849 15.4918L9.79233 17.2442ZM12.4877 14.7967C13.2236 13.7211 13.5984 12.5249 13.5984 11.232H11.5984C11.5984 12.1151 11.3492 12.9189 10.8371 13.6673L12.4877 14.7967ZM13.5984 11.232C13.5984 10.3003 13.2787 9.44308 12.6974 8.68133L11.1075 9.89467C11.4541 10.3489 11.5984 10.7877 11.5984 11.232H13.5984ZM12.6974 8.68133C12.1201 7.92498 11.3501 7.34139 10.4243 6.91551L9.5885 8.73249C10.2627 9.04261 10.7567 9.43502 11.1075 9.89467L12.6974 8.68133ZM10.4313 6.91876C9.50732 6.48505 8.51331 6.272 7.46241 6.272V8.272C8.2355 8.272 8.93749 8.42695 9.5815 8.72924L10.4313 6.91876ZM7.46241 6.272C6.55548 6.272 5.68566 6.47595 4.86357 6.87743L5.74124 8.67457C6.29515 8.40405 6.86533 8.272 7.46241 8.272V6.272ZM4.85519 6.88157C4.05688 7.28073 3.37517 7.82707 2.81965 8.51667L4.37716 9.77133C4.74965 9.30893 5.20393 8.94327 5.74962 8.67043L4.85519 6.88157ZM2.80905 8.53006C2.25595 9.2412 1.91205 10.0454 1.79158 10.9289L3.77324 11.1991C3.84477 10.6746 4.04487 10.1988 4.38776 9.75794L2.80905 8.53006ZM27.221 6.216H26.221V6.22455L26.2211 6.23309L27.221 6.216ZM26.309 12.336L25.3485 12.0576L25.3485 12.0576L26.309 12.336ZM23.717 18L22.8954 17.4299L22.8868 17.4423L22.8785 17.455L23.717 18ZM22.037 19.824L21.4037 19.05L21.395 19.0572L22.037 19.824ZM19.805 21.216L18.8803 21.5967L19.2703 22.5438L20.2077 22.1313L19.805 21.216ZM19.469 20.4L19.0606 19.4872L18.1748 19.8835L18.5443 20.7807L19.469 20.4ZM21.197 19.344L20.6006 18.5413L20.5877 18.5509L20.5751 18.5609L21.197 19.344ZM22.613 18L23.3938 18.6247L23.8564 18.0465L23.4383 17.4353L22.613 18ZM20.333 13.632L19.4164 14.0321L19.4204 14.0408L20.333 13.632ZM17.741 6.888L18.6872 6.56446L18.6789 6.54031L18.6694 6.51661L17.741 6.888ZM17.813 6.72L17.454 5.78657L17.4416 5.79152L17.813 6.72ZM18.437 6.48L18.7959 7.41335L18.841 7.39601L18.8842 7.37442L18.437 6.48ZM18.533 6.48L18.0857 7.37442L18.0858 7.37443L18.533 6.48ZM18.605 6.552L19.5508 6.22726L19.5292 6.16431L19.4994 6.10479L18.605 6.552ZM23.093 17.16L22.2028 17.6157L22.9533 19.0815L23.9078 17.7396L23.093 17.16ZM25.541 11.952L24.5788 11.6794L24.5768 11.6868L25.541 11.952ZM26.309 6.288H25.309V6.29662L25.3091 6.30524L26.309 6.288ZM26.429 6.168V7.168H26.4844L26.5394 7.16188L26.429 6.168ZM27.077 6.096V5.096H27.0216L26.9665 5.10212L27.077 6.096ZM26.2211 6.23309C26.2511 7.98546 25.9668 9.92459 25.3485 12.0576L27.2694 12.6144C27.9312 10.3314 28.2549 8.19054 28.2208 6.19891L26.2211 6.23309ZM25.3485 12.0576C24.7327 14.1821 23.9104 15.9671 22.8954 17.4299L24.5386 18.5701C25.6995 16.8969 26.6052 14.9059 27.2694 12.6144L25.3485 12.0576ZM22.8785 17.455C22.5283 17.9938 22.0428 18.5272 21.4037 19.05L22.6702 20.598C23.4392 19.9688 24.0737 19.2862 24.5554 18.545L22.8785 17.455ZM21.395 19.0572C20.7774 19.5743 20.1136 19.9877 19.4022 20.3007L20.2077 22.1313C21.0963 21.7403 21.9205 21.2257 22.6789 20.5908L21.395 19.0572ZM20.7296 20.8353L20.3936 20.0193L18.5443 20.7807L18.8803 21.5967L20.7296 20.8353ZM19.8773 21.3128C20.5649 21.0052 21.2122 20.6089 21.8189 20.1271L20.5751 18.5609C20.0937 18.9431 19.5891 19.2508 19.0606 19.4872L19.8773 21.3128ZM21.7933 20.1467C22.4131 19.6863 22.9496 19.18 23.3938 18.6247L21.8321 17.3753C21.5084 17.78 21.1008 18.1697 20.6006 18.5413L21.7933 20.1467ZM23.4383 17.4353C22.8666 16.5998 22.136 15.2107 21.2456 13.2232L19.4204 14.0408C20.3219 16.0533 21.1113 17.5762 21.7877 18.5647L23.4383 17.4353ZM21.2495 13.2319C20.3822 11.2452 19.5279 9.02329 18.6872 6.56446L16.7948 7.21154C17.65 9.71271 18.5237 11.9868 19.4165 14.0321L21.2495 13.2319ZM18.6694 6.51661C18.7107 6.61973 18.7834 6.87817 18.6541 7.17992C18.5248 7.48167 18.2875 7.60723 18.1844 7.64848L17.4416 5.79152C17.2585 5.86477 16.9691 6.03433 16.8158 6.39208C16.6625 6.74983 16.7392 7.07627 16.8125 7.25939L18.6694 6.51661ZM18.1719 7.65335L18.7959 7.41335L18.078 5.54665L17.454 5.78665L18.1719 7.65335ZM18.8842 7.37442C18.7779 7.42757 18.6417 7.468 18.485 7.468C18.3282 7.468 18.192 7.42757 18.0857 7.37442L18.9802 5.58558C18.6667 5.42881 18.3033 5.42881 17.9897 5.58558L18.8842 7.37442ZM18.0858 7.37443C17.9242 7.29366 17.7913 7.16074 17.7105 6.99921L19.4994 6.10479C19.3866 5.87926 19.2057 5.69833 18.9802 5.58557L18.0858 7.37443ZM17.6592 6.87674C18.9538 10.6475 20.4682 14.2274 22.2028 17.6157L23.9831 16.7043C22.2938 13.4046 20.8161 9.91253 19.5508 6.22726L17.6592 6.87674ZM23.9078 17.7396C25.0827 16.0881 25.9476 14.2447 26.5052 12.2172L24.5768 11.6868C24.0783 13.4993 23.3113 15.1279 22.2781 16.5804L23.9078 17.7396ZM26.5031 12.2246C27.0718 10.2174 27.3426 8.23177 27.3088 6.27076L25.3091 6.30524C25.3393 8.05623 25.0981 9.84659 24.5788 11.6794L26.5031 12.2246ZM27.309 6.288C27.309 6.41015 27.2778 6.68543 27.0401 6.92311L25.6259 5.50889C25.3562 5.77857 25.309 6.10184 25.309 6.288H27.309ZM27.0401 6.92311C26.9631 7.0001 26.7557 7.168 26.429 7.168V5.168C26.0382 5.168 25.7669 5.3679 25.6259 5.50889L27.0401 6.92311ZM26.5394 7.16188L27.1874 7.08988L26.9665 5.10212L26.3185 5.17412L26.5394 7.16188ZM27.077 7.096C27.0107 7.096 26.7749 7.08597 26.5448 6.89422C26.2798 6.67337 26.221 6.38293 26.221 6.216H28.221C28.221 5.96906 28.1382 5.61863 27.8252 5.35778C27.547 5.12603 27.2392 5.096 27.077 5.096V7.096ZM47.3532 9.216L46.4407 9.62506L46.4434 9.631L47.3532 9.216ZM47.3532 15.336L48.2477 15.7832L48.251 15.7764L47.3532 15.336ZM45.6012 17.28L46.113 18.1391L46.1197 18.1351L46.1263 18.131L45.6012 17.28ZM40.5612 17.28L40.0109 18.115L40.0176 18.1194L40.0243 18.1237L40.5612 17.28ZM38.9052 15.336L37.9943 15.7485L37.999 15.759L38.004 15.7693L38.9052 15.336ZM38.9052 9.216L37.9869 8.82016L37.9836 8.82794L38.9052 9.216ZM41.0172 7.848L40.4172 7.04793L40.4064 7.05622L41.0172 7.848ZM39.6972 9.696L38.7687 9.32459L38.7649 9.33447L39.6972 9.696ZM40.2732 15.768L39.4967 16.398L39.4967 16.398L40.2732 15.768ZM45.9372 15.768L45.189 15.1045L45.182 15.1125L45.9372 15.768ZM46.5612 9.696L45.6392 10.0832L45.6421 10.0899L46.5612 9.696ZM45.1212 7.848L44.542 8.66324L44.552 8.67019L45.1212 7.848ZM43.0092 7.288C43.7998 7.288 44.4646 7.49193 45.0384 7.8826L46.164 6.2294C45.2338 5.59607 44.1706 5.288 43.0092 5.288V7.288ZM45.0384 7.8826C45.6199 8.27852 46.0912 8.84545 46.4407 9.62506L48.2657 8.80694C47.7832 7.73055 47.0865 6.85748 46.164 6.2294L45.0384 7.8826ZM46.4434 9.631C46.7887 10.388 46.9772 11.3053 46.9772 12.408H48.9772C48.9772 11.0787 48.7497 9.868 48.263 8.80099L46.4434 9.631ZM46.9772 12.408C46.9772 13.385 46.7937 14.206 46.4554 14.8956L48.251 15.7764C48.7447 14.77 48.9772 13.639 48.9772 12.408H46.9772ZM46.4588 14.8888C46.1214 15.5636 45.6613 16.0679 45.0761 16.429L46.1263 18.131C47.0451 17.5641 47.7531 16.7724 48.2476 15.7832L46.4588 14.8888ZM45.0894 16.4209C44.5095 16.7664 43.8263 16.952 43.0092 16.952V18.952C44.1441 18.952 45.1889 18.6896 46.113 18.1391L45.0894 16.4209ZM43.0092 16.952C42.2494 16.952 41.624 16.771 41.0981 16.4363L40.0243 18.1237C40.9064 18.685 41.9131 18.952 43.0092 18.952V16.952ZM41.1115 16.445C40.5729 16.09 40.1357 15.5875 39.8065 14.9027L38.004 15.7693C38.4747 16.7485 39.1416 17.542 40.0109 18.115L41.1115 16.445ZM39.8162 14.9235C39.5008 14.2269 39.3292 13.3958 39.3292 12.408H37.3292C37.3292 13.6282 37.5417 14.7491 37.9943 15.7485L39.8162 14.9235ZM39.3292 12.408C39.3292 11.2956 39.505 10.3686 39.8269 9.60406L37.9836 8.82794C37.5375 9.88743 37.3292 11.0884 37.3292 12.408H39.3292ZM39.8235 9.61183C40.1641 8.82172 40.6125 8.25524 41.1494 7.86474L39.973 6.24726C39.102 6.88076 38.4463 7.75427 37.9869 8.82017L39.8235 9.61183ZM41.1494 7.86474C41.6709 7.48548 42.2778 7.288 43.0092 7.288V5.288C41.8847 5.288 40.8596 5.60252 39.973 6.24726L41.1494 7.86474ZM43.0092 6.2C42.0511 6.2 41.1744 6.48013 40.4172 7.048L41.6172 8.648C42.0121 8.35187 42.4633 8.2 43.0092 8.2V6.2ZM40.4064 7.05622C39.6769 7.61899 39.1407 8.39477 38.7687 9.32461L40.6257 10.0674C40.8938 9.39723 41.2375 8.94101 41.628 8.63978L40.4064 7.05622ZM38.7649 9.33447C38.4076 10.2559 38.2412 11.2865 38.2412 12.408H40.2412C40.2412 11.4815 40.3789 10.7041 40.6296 10.0575L38.7649 9.33447ZM38.2412 12.408C38.2412 13.9652 38.6283 15.3277 39.4967 16.398L41.0498 15.138C40.5422 14.5123 40.2412 13.6348 40.2412 12.408H38.2412ZM39.4967 16.398C40.3832 17.4908 41.5859 18.04 43.0092 18.04V16.04C42.1606 16.04 41.5392 15.7412 41.0498 15.138L39.4967 16.398ZM43.0092 18.04C44.4878 18.04 45.7494 17.51 46.6924 16.4235L45.182 15.1125C44.653 15.722 43.9626 16.04 43.0092 16.04V18.04ZM46.6854 16.4315C47.6345 15.3612 48.0652 13.9863 48.0652 12.408H46.0652C46.0652 13.6137 45.7439 14.4788 45.189 15.1045L46.6854 16.4315ZM48.0652 12.408C48.0652 11.2752 47.8793 10.2329 47.4804 9.30208L45.6421 10.0899C45.9152 10.7271 46.0652 11.4928 46.0652 12.408H48.0652ZM47.4832 9.30877C47.0843 8.35894 46.4926 7.58113 45.6904 7.02581L44.552 8.67019C44.9979 8.97887 45.3662 9.43306 45.6392 10.0832L47.4832 9.30877ZM45.7004 7.03282C44.9107 6.47169 44.0009 6.2 43.0092 6.2V8.2C43.6176 8.2 44.1158 8.36031 44.542 8.66318L45.7004 7.03282ZM60.5384 17.64H61.5384V17.6043L61.5359 17.5688L60.5384 17.64ZM60.4904 17.736L61.1975 18.4431L61.1975 18.4431L60.4904 17.736ZM60.4184 17.76V16.76H60.3762L60.3341 16.7636L60.4184 17.76ZM52.7864 18L52.2249 18.8275L52.4596 18.9867L52.743 18.9991L52.7864 18ZM52.1144 17.544L51.4073 18.2511L51.4744 18.3182L51.5529 18.3715L52.1144 17.544ZM52.0904 17.376L52.7975 18.0831L52.8551 18.0255L52.9026 17.9594L52.0904 17.376ZM58.8584 7.152L59.7138 7.67003L60.6331 6.152H58.8584V7.152ZM54.6344 7.248V8.248H54.6548L54.6752 8.24717L54.6344 7.248ZM54.5384 6.384L53.8313 5.67689L53.8313 5.6769L54.5384 6.384ZM54.6344 6.336V7.336H54.6529L54.6714 7.33531L54.6344 6.336ZM59.3864 6.24L59.9479 5.41252L59.6937 5.24H59.3864V6.24ZM60.0584 6.696L60.7655 5.98889L60.6984 5.9218L60.6199 5.86852L60.0584 6.696ZM60.1064 6.864L59.2744 6.3093L59.2605 6.33004L59.2478 6.35144L60.1064 6.864ZM53.4344 17.112L52.614 16.5402L51.528 18.0984L53.4273 18.112L53.4344 17.112ZM60.3704 16.848V15.848H60.3302L60.2901 15.8512L60.3704 16.848ZM60.4904 16.968H59.4904V17.0037L59.4929 17.0392L60.4904 16.968ZM59.5384 17.64C59.5384 17.3132 59.7063 17.1059 59.7833 17.0289L61.1975 18.4431C61.3385 18.3021 61.5384 18.0308 61.5384 17.64H59.5384ZM59.7833 17.0289C60.021 16.7912 60.2963 16.76 60.4184 16.76V18.76C60.6046 18.76 60.9278 18.7128 61.1975 18.4431L59.7833 17.0289ZM60.3341 16.7636C58.2792 16.9374 56.3235 17.024 54.4664 17.024V19.024C56.3853 19.024 58.3976 18.9346 60.5027 18.7564L60.3341 16.7636ZM54.4664 17.024C53.7173 17.024 53.1752 17.016 52.8298 17.0009L52.743 18.9991C53.1337 19.016 53.7115 19.024 54.4664 19.024V17.024ZM53.3479 17.1725L52.6759 16.7165L51.5529 18.3715L52.2249 18.8275L53.3479 17.1725ZM52.8215 16.8369C52.8575 16.8729 53.0103 17.032 53.0504 17.3126C53.1 17.6601 52.946 17.9346 52.7975 18.0831L51.3833 16.6689C51.1868 16.8654 51.0128 17.1919 51.0705 17.5954C51.1185 17.932 51.3073 18.1511 51.4073 18.2511L52.8215 16.8369ZM52.9026 17.9594C55.365 14.5313 57.6355 11.1015 59.7138 7.67003L58.003 6.63396C55.9533 10.0185 53.7118 13.4047 51.2782 16.7926L52.9026 17.9594ZM58.8584 6.152H58.1144V8.152H58.8584V6.152ZM58.1144 6.152C57.3409 6.152 56.164 6.18474 54.5936 6.24883L54.6752 8.24717C56.2409 8.18326 57.3839 8.152 58.1144 8.152V6.152ZM54.6344 6.248C54.7486 6.248 55.0178 6.27721 55.2515 6.51089C55.4852 6.74457 55.5144 7.01385 55.5144 7.128H53.5144C53.5144 7.32214 53.5636 7.65143 53.8373 7.92511C54.111 8.19879 54.4403 8.248 54.6344 8.248V6.248ZM55.5144 7.128V6.456H53.5144V7.128H55.5144ZM55.5144 6.456C55.5144 6.57815 55.4832 6.85343 55.2455 7.0911L53.8313 5.6769C53.5616 5.94657 53.5144 6.26985 53.5144 6.456H55.5144ZM55.2455 7.0911C55.1685 7.1681 54.9612 7.336 54.6344 7.336V5.336C54.2436 5.336 53.9723 5.5359 53.8313 5.67689L55.2455 7.0911ZM54.6714 7.33531C56.3964 7.27143 57.6855 7.24 58.5464 7.24V5.24C57.6473 5.24 56.3284 5.27257 54.5974 5.33668L54.6714 7.33531ZM58.5464 7.24H59.3864V5.24H58.5464V7.24ZM58.8249 7.06748L59.4969 7.52348L60.6199 5.86852L59.9479 5.41252L58.8249 7.06748ZM59.3513 7.40311C59.3237 7.37552 59.2145 7.2624 59.1569 7.06072C59.0852 6.80976 59.1258 6.53208 59.2744 6.3093L60.9385 7.4187C61.119 7.14792 61.1676 6.81824 61.0799 6.51128C61.0063 6.2536 60.8571 6.08047 60.7655 5.98889L59.3513 7.40311ZM59.2478 6.35144C57.3902 9.46325 55.1795 12.8592 52.614 16.5402L54.2548 17.6838C56.8413 13.9728 59.0786 10.5368 60.9651 7.37656L59.2478 6.35144ZM53.4273 18.112C55.6983 18.1282 58.0395 18.039 60.4507 17.8448L60.2901 15.8512C57.9333 16.041 55.6505 16.1278 53.4415 16.112L53.4273 18.112ZM60.3704 17.848C60.2563 17.848 59.987 17.8188 59.7533 17.5851C59.5196 17.3514 59.4904 17.0821 59.4904 16.968H61.4904C61.4904 16.7739 61.4412 16.4446 61.1675 16.1709C60.8938 15.8972 60.5646 15.848 60.3704 15.848V17.848ZM59.4929 17.0392L59.5409 17.7112L61.5359 17.5688L61.4879 16.8968L59.4929 17.0392ZM76.4939 6.264L77.4889 6.1645L77.3989 5.264H76.4939V6.264ZM76.4939 18V19H77.414L77.4905 18.083L76.4939 18ZM75.5819 18L74.592 17.8586L74.4289 19H75.5819V18ZM75.6059 15.816H76.6059V12.1064L74.7414 15.3134L75.6059 15.816ZM73.8299 17.448L74.2698 18.3461L74.2771 18.3425L74.2844 18.3388L73.8299 17.448ZM69.1739 17.88L69.326 16.8916L69.3247 16.8914L69.1739 17.88ZM66.7259 16.872L66.1057 17.6564L66.1113 17.6609L66.1171 17.6653L66.7259 16.872ZM65.1419 14.88L64.2266 15.2827L64.2315 15.2939L64.2367 15.3049L65.1419 14.88ZM65.2619 9.264L64.3613 8.82921L64.3553 8.84197L65.2619 9.264ZM67.0619 7.056L66.4758 6.24577L66.4758 6.24577L67.0619 7.056ZM73.1579 7.512L72.5432 8.30073L72.5496 8.30572L72.5561 8.31061L73.1579 7.512ZM75.6059 10.656L74.6832 11.0414L76.6059 10.656H75.6059ZM75.5819 6.264V5.264H74.4491L74.5896 6.38803L75.5819 6.264ZM69.2459 16.944L69.1108 17.9348L69.1155 17.9355L69.2459 16.944ZM74.1899 15.984L74.8815 16.7063L74.8815 16.7063L74.1899 15.984ZM74.5259 10.416L73.6436 10.8866L73.6483 10.8954L73.6531 10.9042L74.5259 10.416ZM72.3899 8.064L71.8184 8.88461L71.8268 8.89041L71.8352 8.89605L72.3899 8.064ZM67.4699 7.824L66.8632 7.02905L66.8632 7.02905L67.4699 7.824ZM66.0059 9.72L66.9112 10.1449L66.9144 10.1379L66.0059 9.72ZM65.9579 14.424L65.0593 14.8629L65.0635 14.8712L65.9579 14.424ZM67.3259 16.128L66.6986 16.9068L66.7052 16.9121L66.712 16.9174L67.3259 16.128ZM75.4989 6.3635C75.4988 6.36259 75.499 6.36513 75.4996 6.37211C75.5001 6.37883 75.5007 6.38811 75.5014 6.4003C75.5028 6.42489 75.5043 6.45734 75.5059 6.49866C75.5091 6.58139 75.5122 6.69118 75.5151 6.8297C75.521 7.10639 75.526 7.48597 75.5299 7.97023C75.5379 8.93811 75.5419 10.3129 75.5419 12.096H77.5419C77.5419 10.3111 77.5379 8.92989 77.5299 7.95377C77.5221 7.01063 77.5108 6.38275 77.4889 6.1645L75.4989 6.3635ZM75.5419 12.096C75.5419 15.6828 75.5248 17.5872 75.4974 17.917L77.4905 18.083C77.527 17.6448 77.5419 15.6132 77.5419 12.096H75.5419ZM76.4939 17H75.5819V19H76.4939V17ZM76.5719 18.1414C76.5856 18.0453 76.5895 17.9157 76.592 17.8291C76.5952 17.7155 76.5978 17.5653 76.5998 17.381C76.6039 17.0115 76.6059 16.4892 76.6059 15.816H74.6059C74.6059 16.4868 74.6039 17.0005 74.6 17.359C74.598 17.5387 74.5956 17.6755 74.5928 17.7719C74.5893 17.8953 74.5862 17.8987 74.592 17.8586L76.5719 18.1414ZM74.7414 15.3134C74.448 15.818 74.0071 16.235 73.3754 16.5572L74.2844 18.3388C75.2207 17.861 75.9638 17.19 76.4704 16.3186L74.7414 15.3134ZM73.39 16.5499C72.7812 16.8482 71.9666 17.024 70.9019 17.024V19.024C72.1733 19.024 73.3107 18.8158 74.2698 18.3461L73.39 16.5499ZM70.9019 17.024C70.4335 17.024 69.9091 16.9813 69.326 16.8916L69.0219 18.8684C69.6868 18.9707 70.3143 19.024 70.9019 19.024V17.024ZM69.3247 16.8914C68.5302 16.7702 67.8758 16.4939 67.3347 16.0787L66.1171 17.6653C66.952 18.3061 67.9296 18.7018 69.0231 18.8686L69.3247 16.8914ZM67.3461 16.0876C66.7781 15.6384 66.3484 15.0969 66.0471 14.4551L64.2367 15.3049C64.6714 16.2311 65.2977 17.0176 66.1057 17.6564L67.3461 16.0876ZM66.0572 14.4773C65.7645 13.8119 65.6139 13.086 65.6139 12.288H63.6139C63.6139 13.346 63.8153 14.3481 64.2266 15.2827L66.0572 14.4773ZM65.6139 12.288C65.6139 11.3364 65.8019 10.4736 66.1685 9.68603L64.3553 8.84197C63.858 9.91038 63.6139 11.0636 63.6139 12.288H65.6139ZM66.1625 9.69875C66.5465 8.90327 67.0447 8.3027 67.648 7.86622L66.4758 6.24577C65.5752 6.8973 64.8733 7.76873 64.3614 8.82925L66.1625 9.69875ZM67.648 7.86622C68.2429 7.4359 68.8483 7.24 69.4859 7.24V5.24C68.3955 5.24 67.3849 5.5881 66.4758 6.24577L67.648 7.86622ZM69.4859 7.24C70.6198 7.24 71.6281 7.58752 72.5432 8.30073L73.7727 6.72327C72.5117 5.74048 71.0721 5.24 69.4859 5.24V7.24ZM72.5561 8.31061C73.5197 9.03683 74.2242 9.94277 74.6832 11.0414L76.5286 10.2706C75.9316 8.84123 75.0041 7.65117 73.7598 6.71339L72.5561 8.31061ZM76.6059 10.656C76.6059 9.2555 76.6039 8.18732 76.5999 7.45253C76.5979 7.0855 76.5954 6.79924 76.5923 6.59543C76.5898 6.43158 76.5869 6.24152 76.5742 6.13997L74.5896 6.38803C74.5849 6.35048 74.589 6.39142 74.5925 6.62557C74.5954 6.81976 74.5979 7.09849 74.5999 7.46346C74.6039 8.19268 74.6059 9.2565 74.6059 10.656H76.6059ZM75.5819 7.264H76.4939V5.264H75.5819V7.264ZM69.1155 17.9355C69.7485 18.0187 70.3071 18.064 70.7819 18.064V16.064C70.4247 16.064 69.9593 16.0293 69.3764 15.9525L69.1155 17.9355ZM70.7819 18.064C72.442 18.064 73.8729 17.672 74.8815 16.7063L73.4983 15.2617C73.0029 15.736 72.1618 16.064 70.7819 16.064V18.064ZM74.8815 16.7063C75.8434 15.7853 76.3179 14.6063 76.3179 13.248H74.3179C74.3179 14.0977 74.0404 14.7427 73.4983 15.2617L74.8815 16.7063ZM76.3179 13.248C76.3179 12.1095 75.9978 10.999 75.3987 9.92785L73.6531 10.9042C74.11 11.721 74.3179 12.4985 74.3179 13.248H76.3179ZM75.4083 9.94541C74.818 8.83859 73.9929 7.93083 72.9446 7.23195L71.8352 8.89605C72.6109 9.41317 73.2099 10.0734 73.6436 10.8866L75.4083 9.94541ZM72.9614 7.24339C71.8983 6.50305 70.707 6.128 69.4139 6.128V8.128C70.2968 8.128 71.0895 8.37695 71.8184 8.88461L72.9614 7.24339ZM69.4139 6.128C68.4822 6.128 67.625 6.44771 66.8632 7.02905L68.0766 8.61895C68.5308 8.27229 68.9696 8.128 69.4139 8.128V6.128ZM66.8632 7.02905C66.1069 7.60626 65.5233 8.37626 65.0974 9.30209L66.9144 10.1379C67.2245 9.46374 67.6169 8.96974 68.0766 8.61895L66.8632 7.02905ZM65.1007 9.29509C64.667 10.2191 64.4539 11.2131 64.4539 12.264H66.4539C66.4539 11.4909 66.6089 10.7889 66.9111 10.1449L65.1007 9.29509ZM64.4539 12.264C64.4539 13.1709 64.6579 14.0407 65.0593 14.8628L66.8565 13.9852C66.586 13.4313 66.4539 12.8611 66.4539 12.264H64.4539ZM65.0635 14.8712C65.4626 15.6695 66.009 16.3512 66.6986 16.9068L67.9532 15.3492C67.4908 14.9768 67.1252 14.5225 66.8523 13.9768L65.0635 14.8712ZM66.712 16.9174C67.4231 17.4705 68.2274 17.8144 69.1108 17.9348L69.381 15.9532C68.8565 15.8816 68.3807 15.6815 67.9398 15.3386L66.712 16.9174ZM90.1291 8.112L89.2698 8.6237L89.2768 8.63502L90.1291 8.112ZM91.2571 17.88L92.1515 18.3272L92.2351 18.1601L92.2527 17.9742L91.2571 17.88ZM91.1851 17.976L90.478 17.2689L90.478 17.2689L91.1851 17.976ZM91.0891 18L91.5363 17.1056L91.41 17.0424L91.2712 17.0167L91.0891 18ZM90.4411 17.88L90.6232 16.8967L90.5329 16.88H90.4411V17.88ZM90.3691 17.832L89.4747 18.2792L89.4747 18.2792L90.3691 17.832ZM90.3451 17.736L89.3489 17.6484L89.3451 17.6921V17.736H90.3451ZM89.4331 8.664L88.5786 9.1836L88.5838 9.19193L89.4331 8.664ZM82.8571 8.256L82.0789 7.62798L82.0776 7.62961L82.8571 8.256ZM81.6571 11.88L80.6585 11.8274L80.6571 11.8537V11.88H81.6571ZM81.6331 18V19H82.5159L82.6254 18.124L81.6331 18ZM80.7211 18L79.7236 17.9288L79.6471 19H80.7211V18ZM80.7211 6.264V5.264H79.6038L79.7272 6.37443L80.7211 6.264ZM81.6331 6.264L82.6137 6.06788L82.4529 5.264H81.6331V6.264ZM81.6571 8.448H80.6571L82.5329 8.9306L81.6571 8.448ZM83.3371 6.624L82.8141 5.77163L82.8053 5.77711L83.3371 6.624ZM85.7131 6.976C87.5642 6.976 88.6512 7.5847 89.2699 8.62365L90.9883 7.60035C89.911 5.79129 88.054 4.976 85.7131 4.976V6.976ZM89.2768 8.63502C90.0013 9.81571 90.4251 11.6483 90.4251 14.256H92.4251C92.4251 11.4877 91.9849 9.22429 90.9814 7.58898L89.2768 8.63502ZM90.4251 14.256C90.4251 15.4577 90.3705 16.6342 90.2615 17.7858L92.2527 17.9742C92.3677 16.7578 92.4251 15.5183 92.4251 14.256H90.4251ZM90.3627 17.4328C90.4055 17.3471 90.4532 17.2937 90.478 17.2689L91.8922 18.6831C91.981 18.5943 92.0767 18.4769 92.1515 18.3272L90.3627 17.4328ZM90.478 17.2689C90.5444 17.2025 90.681 17.0892 90.8946 17.0359C91.1304 16.9769 91.3583 17.0166 91.5363 17.1056L90.6419 18.8944C90.8519 18.9994 91.1118 19.0431 91.3796 18.9761C91.6251 18.9148 91.7938 18.7815 91.8922 18.6831L90.478 17.2689ZM91.2712 17.0167L90.6232 16.8967L90.259 18.8633L90.907 18.9833L91.2712 17.0167ZM90.4411 16.88C90.6001 16.88 90.7838 16.9226 90.9538 17.036C91.1175 17.1451 91.2122 17.2822 91.2635 17.3848L89.4747 18.2792C89.542 18.4138 89.6567 18.5749 89.8444 18.7C90.0384 18.8294 90.2501 18.88 90.4411 18.88V16.88ZM91.2635 17.3848C91.3087 17.4751 91.3451 17.5952 91.3451 17.736H89.3451C89.3451 17.9408 89.3975 18.1249 89.4747 18.2792L91.2635 17.3848ZM91.3413 17.8236C91.4709 16.3486 91.5371 15.0619 91.5371 13.968H89.5371C89.5371 14.9861 89.4753 16.2114 89.3489 17.6484L91.3413 17.8236ZM91.5371 13.968C91.5371 11.5432 91.1634 9.55332 90.2824 8.13607L88.5838 9.19193C89.1748 10.1427 89.5371 11.6888 89.5371 13.968H91.5371ZM90.2875 8.14442C89.3362 6.58005 87.7141 5.888 85.7131 5.888V7.888C87.2321 7.888 88.09 8.37995 88.5787 9.18358L90.2875 8.14442ZM85.7131 5.888C84.2416 5.888 83.004 6.48167 82.0789 7.62798L83.6353 8.88402C84.1822 8.20633 84.8486 7.888 85.7131 7.888V5.888ZM82.0776 7.62961C81.1894 8.73485 80.746 10.1652 80.6585 11.8274L82.6557 11.9326C82.7282 10.5548 83.0847 9.56915 83.6366 8.88239L82.0776 7.62961ZM80.6571 11.88V14.352H82.6571V11.88H80.6571ZM80.6571 14.352C80.6571 15.5034 80.6551 16.3808 80.6511 16.9854C80.6491 17.2881 80.6467 17.5198 80.6438 17.6821C80.6402 17.8792 80.6365 17.9108 80.6408 17.876L82.6254 18.124C82.6377 18.0252 82.641 17.8568 82.6434 17.7179C82.6465 17.5442 82.6491 17.3039 82.6511 16.9986C82.6551 16.3872 82.6571 15.5046 82.6571 14.352H80.6571ZM81.6331 17H80.7211V19H81.6331V17ZM81.7186 18.0712C81.7539 17.577 81.7691 15.5407 81.7691 12.048H79.7691C79.7691 15.5953 79.7523 17.527 79.7236 17.9288L81.7186 18.0712ZM81.7691 12.048C81.7691 10.2631 81.7651 8.88587 81.7571 7.9177C81.7494 6.98869 81.7383 6.36313 81.715 6.15357L79.7272 6.37443C79.7269 6.3717 79.7297 6.40173 79.7332 6.48896C79.7363 6.5676 79.7394 6.6737 79.7423 6.80916C79.7482 7.07962 79.7531 7.45402 79.7571 7.9343C79.7651 8.89413 79.7691 10.2649 79.7691 12.048H81.7691ZM80.7211 7.264H81.6331V5.264H80.7211V7.264ZM80.6525 6.46012C80.6385 6.39028 80.638 6.34059 80.6404 6.38213C80.6414 6.39894 80.6427 6.42878 80.644 6.47519C80.6468 6.5669 80.6492 6.70115 80.6512 6.88099C80.6551 7.23942 80.6571 7.76106 80.6571 8.448H82.6571C82.6571 7.75894 82.6551 7.22858 82.651 6.85901C82.649 6.67485 82.6464 6.5261 82.6432 6.41581C82.6415 6.36122 82.6396 6.31031 82.6371 6.26662C82.636 6.24766 82.6316 6.15771 82.6137 6.06788L80.6525 6.46012ZM82.5329 8.9306C82.8916 8.27977 83.3389 7.80367 83.8689 7.47089L82.8053 5.77711C81.9593 6.30833 81.2866 7.04823 80.7813 7.96539L82.5329 8.9306ZM83.8601 7.47632C84.3964 7.14726 85.0051 6.976 85.7131 6.976V4.976C84.6611 4.976 83.6858 5.23674 82.8141 5.77168L83.8601 7.47632ZM107.513 6.264L108.508 6.1645L108.418 5.264H107.513V6.264ZM107.513 18V19H108.433L108.51 18.083L107.513 18ZM106.601 18L105.611 17.8586L105.448 19H106.601V18ZM106.625 15.816H107.625V12.1064L105.76 15.3134L106.625 15.816ZM104.849 17.448L105.289 18.3461L105.296 18.3425L105.303 18.3388L104.849 17.448ZM100.193 17.88L100.345 16.8916L100.344 16.8914L100.193 17.88ZM97.745 16.872L97.1247 17.6564L97.1304 17.6609L97.1362 17.6653L97.745 16.872ZM96.161 14.88L95.2457 15.2827L95.2506 15.2939L95.2557 15.3049L96.161 14.88ZM96.281 9.264L95.3803 8.82921L95.3744 8.84197L96.281 9.264ZM98.081 7.056L97.4949 6.24577L97.4948 6.24577L98.081 7.056ZM104.177 7.512L103.562 8.30073L103.569 8.30572L103.575 8.31061L104.177 7.512ZM106.625 10.656L105.702 11.0414L107.625 10.656H106.625ZM106.601 6.264V5.264H105.468L105.609 6.38803L106.601 6.264ZM100.265 16.944L100.13 17.9348L100.135 17.9355L100.265 16.944ZM105.209 15.984L105.901 16.7063L105.901 16.7063L105.209 15.984ZM105.545 10.416L104.663 10.8866L104.667 10.8954L104.672 10.9042L105.545 10.416ZM103.409 8.064L102.837 8.88461L102.846 8.89041L102.854 8.89605L103.409 8.064ZM98.489 7.824L97.8823 7.02905L97.8823 7.02905L98.489 7.824ZM97.025 9.72L97.9302 10.1449L97.9335 10.1379L97.025 9.72ZM96.977 14.424L96.0784 14.8629L96.0825 14.8712L96.977 14.424ZM98.345 16.128L97.7176 16.9068L97.7243 16.9121L97.731 16.9174L98.345 16.128ZM106.518 6.3635C106.518 6.36259 106.518 6.36513 106.519 6.37211C106.519 6.37883 106.52 6.38811 106.52 6.4003C106.522 6.42489 106.523 6.45734 106.525 6.49866C106.528 6.58139 106.531 6.69118 106.534 6.8297C106.54 7.10639 106.545 7.48597 106.549 7.97023C106.557 8.93811 106.561 10.3129 106.561 12.096H108.561C108.561 10.3111 108.557 8.92989 108.549 7.95377C108.541 7.01063 108.53 6.38275 108.508 6.1645L106.518 6.3635ZM106.561 12.096C106.561 15.6828 106.544 17.5872 106.516 17.917L108.51 18.083C108.546 17.6448 108.561 15.6132 108.561 12.096H106.561ZM107.513 17H106.601V19H107.513V17ZM107.591 18.1414C107.605 18.0453 107.609 17.9157 107.611 17.8291C107.614 17.7155 107.617 17.5653 107.619 17.381C107.623 17.0115 107.625 16.4892 107.625 15.816H105.625C105.625 16.4868 105.623 17.0005 105.619 17.359C105.617 17.5387 105.615 17.6755 105.612 17.7719C105.608 17.8953 105.605 17.8987 105.611 17.8586L107.591 18.1414ZM105.76 15.3134C105.467 15.818 105.026 16.235 104.394 16.5572L105.303 18.3388C106.24 17.861 106.983 17.19 107.489 16.3186L105.76 15.3134ZM104.409 16.5499C103.8 16.8482 102.986 17.024 101.921 17.024V19.024C103.192 19.024 104.33 18.8158 105.289 18.3461L104.409 16.5499ZM101.921 17.024C101.453 17.024 100.928 16.9813 100.345 16.8916L100.041 18.8684C100.706 18.9707 101.333 19.024 101.921 19.024V17.024ZM100.344 16.8914C99.5492 16.7702 98.8948 16.4939 98.3538 16.0787L97.1362 17.6653C97.9711 18.3061 98.9487 18.7018 100.042 18.8686L100.344 16.8914ZM98.3652 16.0876C97.7972 15.6384 97.3675 15.0969 97.0662 14.4551L95.2557 15.3049C95.6905 16.2311 96.3168 17.0176 97.1247 17.6564L98.3652 16.0876ZM97.0763 14.4773C96.7835 13.8119 96.633 13.086 96.633 12.288H94.633C94.633 13.346 94.8344 14.3481 95.2457 15.2827L97.0763 14.4773ZM96.633 12.288C96.633 11.3364 96.8209 10.4736 97.1876 9.68603L95.3744 8.84197C94.877 9.91038 94.633 11.0636 94.633 12.288H96.633ZM97.1815 9.69875C97.5655 8.90327 98.0637 8.3027 98.6671 7.86622L97.4948 6.24577C96.5942 6.8973 95.8924 7.76873 95.3804 8.82925L97.1815 9.69875ZM98.6671 7.86622C99.2619 7.4359 99.8674 7.24 100.505 7.24V5.24C99.4145 5.24 98.404 5.5881 97.4949 6.24577L98.6671 7.86622ZM100.505 7.24C101.639 7.24 102.647 7.58752 103.562 8.30073L104.792 6.72327C103.531 5.74048 102.091 5.24 100.505 5.24V7.24ZM103.575 8.31061C104.539 9.03683 105.243 9.94277 105.702 11.0414L107.548 10.2706C106.951 8.84123 106.023 7.65117 104.779 6.71339L103.575 8.31061ZM107.625 10.656C107.625 9.2555 107.623 8.18732 107.619 7.45253C107.617 7.0855 107.614 6.79924 107.611 6.59543C107.609 6.43158 107.606 6.24152 107.593 6.13997L105.609 6.38803C105.604 6.35048 105.608 6.39142 105.612 6.62557C105.615 6.81976 105.617 7.09849 105.619 7.46346C105.623 8.19268 105.625 9.2565 105.625 10.656H107.625ZM106.601 7.264H107.513V5.264H106.601V7.264ZM100.135 17.9355C100.768 18.0187 101.326 18.064 101.801 18.064V16.064C101.444 16.064 100.978 16.0293 100.395 15.9525L100.135 17.9355ZM101.801 18.064C103.461 18.064 104.892 17.672 105.901 16.7063L104.517 15.2617C104.022 15.736 103.181 16.064 101.801 16.064V18.064ZM105.901 16.7063C106.862 15.7853 107.337 14.6063 107.337 13.248H105.337C105.337 14.0977 105.059 14.7427 104.517 15.2617L105.901 16.7063ZM107.337 13.248C107.337 12.1095 107.017 10.999 106.418 9.92785L104.672 10.9042C105.129 11.721 105.337 12.4985 105.337 13.248H107.337ZM106.427 9.94541C105.837 8.83859 105.012 7.93083 103.964 7.23195L102.854 8.89605C103.63 9.41317 104.229 10.0734 104.663 10.8866L106.427 9.94541ZM103.98 7.24339C102.917 6.50305 101.726 6.128 100.433 6.128V8.128C101.316 8.128 102.109 8.37695 102.837 8.88461L103.98 7.24339ZM100.433 6.128C99.5012 6.128 98.6441 6.44771 97.8823 7.02905L99.0956 8.61895C99.5499 8.27229 99.9887 8.128 100.433 8.128V6.128ZM97.8823 7.02905C97.1259 7.60626 96.5424 8.37626 96.1165 9.30209L97.9335 10.1379C98.2436 9.46374 98.636 8.96974 99.0956 8.61895L97.8823 7.02905ZM96.1197 9.29509C95.686 10.2191 95.473 11.2131 95.473 12.264H97.473C97.473 11.4909 97.6279 10.7889 97.9302 10.1449L96.1197 9.29509ZM95.473 12.264C95.473 13.1709 95.6769 14.0407 96.0784 14.8628L97.8755 13.9852C97.605 13.4313 97.473 12.8611 97.473 12.264H95.473ZM96.0825 14.8712C96.4817 15.6695 97.028 16.3512 97.7176 16.9068L98.9723 15.3492C98.5099 14.9768 98.1442 14.5225 97.8714 13.9768L96.0825 14.8712ZM97.731 16.9174C98.4422 17.4705 99.2464 17.8144 100.13 17.9348L100.4 15.9532C99.8755 15.8816 99.3998 15.6815 98.9589 15.3386L97.731 16.9174ZM121.268 6.216H120.268V6.22455L120.268 6.23309L121.268 6.216ZM120.356 12.336L119.396 12.0576L119.396 12.0576L120.356 12.336ZM117.764 18L116.943 17.4299L116.934 17.4423L116.926 17.455L117.764 18ZM116.084 19.824L115.451 19.05L115.442 19.0572L116.084 19.824ZM113.852 21.216L112.927 21.5967L113.317 22.5438L114.255 22.1313L113.852 21.216ZM113.516 20.4L113.108 19.4872L112.222 19.8835L112.591 20.7807L113.516 20.4ZM115.244 19.344L114.648 18.5413L114.635 18.5509L114.622 18.5609L115.244 19.344ZM116.66 18L117.441 18.6247L117.904 18.0465L117.485 17.4353L116.66 18ZM114.38 13.632L113.464 14.0321L113.468 14.0408L114.38 13.632ZM111.788 6.888L112.734 6.56446L112.726 6.54031L112.717 6.51661L111.788 6.888ZM111.86 6.72L111.501 5.78657L111.489 5.79152L111.86 6.72ZM112.484 6.48L112.843 7.41335L112.888 7.39601L112.931 7.37442L112.484 6.48ZM112.58 6.48L112.133 7.37442L112.133 7.37443L112.58 6.48ZM112.652 6.552L113.598 6.22726L113.576 6.16431L113.547 6.10479L112.652 6.552ZM117.14 17.16L116.25 17.6157L117 19.0815L117.955 17.7396L117.14 17.16ZM119.588 11.952L118.626 11.6794L118.624 11.6868L119.588 11.952ZM120.356 6.288H119.356V6.29662L119.356 6.30524L120.356 6.288ZM120.476 6.168V7.168H120.532L120.587 7.16188L120.476 6.168ZM121.124 6.096V5.096H121.069L121.014 5.10212L121.124 6.096ZM120.268 6.23309C120.298 7.98546 120.014 9.92459 119.396 12.0576L121.317 12.6144C121.978 10.3314 122.302 8.19054 122.268 6.19891L120.268 6.23309ZM119.396 12.0576C118.78 14.1821 117.958 15.9671 116.943 17.4299L118.586 18.5701C119.747 16.8969 120.652 14.9059 121.317 12.6144L119.396 12.0576ZM116.926 17.455C116.575 17.9938 116.09 18.5272 115.451 19.05L116.717 20.598C117.486 19.9688 118.121 19.2862 118.603 18.545L116.926 17.455ZM115.442 19.0572C114.825 19.5743 114.161 19.9877 113.449 20.3007L114.255 22.1313C115.144 21.7403 115.968 21.2257 116.726 20.5908L115.442 19.0572ZM114.777 20.8353L114.441 20.0193L112.591 20.7807L112.927 21.5967L114.777 20.8353ZM113.925 21.3128C114.612 21.0052 115.259 20.6089 115.866 20.1271L114.622 18.5609C114.141 18.9431 113.636 19.2508 113.108 19.4872L113.925 21.3128ZM115.84 20.1467C116.46 19.6863 116.997 19.18 117.441 18.6247L115.879 17.3753C115.556 17.78 115.148 18.1697 114.648 18.5413L115.84 20.1467ZM117.485 17.4353C116.914 16.5998 116.183 15.2107 115.293 13.2232L113.468 14.0408C114.369 16.0533 115.159 17.5762 115.835 18.5647L117.485 17.4353ZM115.297 13.2319C114.429 11.2452 113.575 9.02329 112.734 6.56446L110.842 7.21154C111.697 9.71271 112.571 11.9868 113.464 14.0321L115.297 13.2319ZM112.717 6.51661C112.758 6.61973 112.831 6.87817 112.701 7.17992C112.572 7.48167 112.335 7.60723 112.232 7.64848L111.489 5.79152C111.306 5.86477 111.016 6.03433 110.863 6.39208C110.71 6.74983 110.786 7.07627 110.86 7.25939L112.717 6.51661ZM112.219 7.65335L112.843 7.41335L112.125 5.54665L111.501 5.78665L112.219 7.65335ZM112.931 7.37442C112.825 7.42757 112.689 7.468 112.532 7.468C112.375 7.468 112.239 7.42757 112.133 7.37442L113.027 5.58558C112.714 5.42881 112.35 5.42881 112.037 5.58558L112.931 7.37442ZM112.133 7.37443C111.971 7.29366 111.838 7.16074 111.758 6.99921L113.547 6.10479C113.434 5.87926 113.253 5.69833 113.027 5.58557L112.133 7.37443ZM111.706 6.87674C113.001 10.6475 114.515 14.2274 116.25 17.6157L118.03 16.7043C116.341 13.4046 114.863 9.91253 113.598 6.22726L111.706 6.87674ZM117.955 17.7396C119.13 16.0881 119.995 14.2447 120.552 12.2172L118.624 11.6868C118.126 13.4993 117.358 15.1279 116.325 16.5804L117.955 17.7396ZM120.55 12.2246C121.119 10.2174 121.39 8.23177 121.356 6.27076L119.356 6.30524C119.386 8.05623 119.145 9.84659 118.626 11.6794L120.55 12.2246ZM121.356 6.288C121.356 6.41015 121.325 6.68543 121.087 6.92311L119.673 5.50889C119.403 5.77857 119.356 6.10184 119.356 6.288H121.356ZM121.087 6.92311C121.01 7.0001 120.803 7.168 120.476 7.168V5.168C120.085 5.168 119.814 5.3679 119.673 5.50889L121.087 6.92311ZM120.587 7.16188L121.235 7.08988L121.014 5.10212L120.366 5.17412L120.587 7.16188ZM121.124 7.096C121.058 7.096 120.822 7.08597 120.592 6.89422C120.327 6.67337 120.268 6.38293 120.268 6.216H122.268C122.268 5.96906 122.185 5.61863 121.872 5.35778C121.594 5.12603 121.286 5.096 121.124 5.096V7.096ZM137.287 12.216H136.287V12.2404L136.288 12.2647L137.287 12.216ZM136.783 15.504L137.691 15.9241L137.693 15.9178L136.783 15.504ZM135.103 17.424L134.603 16.5581L134.594 16.5631L135.103 17.424ZM129.343 17.16L128.87 18.0413L128.876 18.0441L129.343 17.16ZM126.607 14.736L125.785 15.3052L125.789 15.3112L126.607 14.736ZM126.343 8.88L125.533 8.29388L125.533 8.29388L126.343 8.88ZM128.551 7.104L128.973 8.01067L128.986 8.00455L128.551 7.104ZM134.335 7.08L133.881 7.97104L133.891 7.97613L133.901 7.981L134.335 7.08ZM136.375 8.856L135.535 9.39853L137.375 12.2476V8.856H136.375ZM136.375 1.584V0.584H135.375V1.584H136.375ZM137.287 1.584H138.287V0.584H137.287V1.584ZM127.327 14.232L126.495 14.7867L126.501 14.7952L126.506 14.8035L127.327 14.232ZM129.679 16.368L129.191 17.2408L129.2 17.2456L129.208 17.2504L129.679 16.368ZM135.271 16.008L134.549 15.3164L134.541 15.3246L135.271 16.008ZM136.231 11.064L137.223 10.9335L137.222 10.9289L136.231 11.064ZM135.391 9.144L134.602 9.75794L134.607 9.76468L134.612 9.77133L135.391 9.144ZM133.687 7.776L133.24 8.67047L133.248 8.67457L133.687 7.776ZM128.983 7.824L128.565 6.91548L128.558 6.91876L128.983 7.824ZM127.111 9.288L127.906 9.89467L127.906 9.89467L127.111 9.288ZM136.288 12.2647C136.347 13.472 136.187 14.3976 135.873 15.0902L137.693 15.9178C138.179 14.8504 138.355 13.584 138.286 12.1673L136.288 12.2647ZM135.876 15.0839C135.549 15.789 135.119 16.2597 134.603 16.5581L135.603 18.2899C136.527 17.7563 137.217 16.947 137.691 15.9241L135.876 15.0839ZM134.594 16.5631C134.059 16.8794 133.438 17.048 132.703 17.048V19.048C133.76 19.048 134.739 18.8006 135.612 18.2849L134.594 16.5631ZM132.703 17.048C131.766 17.048 130.805 16.8019 129.81 16.2759L128.876 18.0441C130.121 18.7021 131.4 19.048 132.703 19.048V17.048ZM129.816 16.2787C128.849 15.7604 128.055 15.0571 127.425 14.1608L125.789 15.3112C126.599 16.4629 127.629 17.3756 128.87 18.0413L129.816 16.2787ZM127.429 14.1668C126.823 13.2916 126.527 12.3457 126.527 11.304H124.527C124.527 12.7583 124.951 14.1004 125.785 15.3052L127.429 14.1668ZM126.527 11.304C126.527 10.6664 126.723 10.061 127.153 9.46612L125.533 8.29388C124.875 9.20302 124.527 10.2136 124.527 11.304H126.527ZM127.153 9.46612C127.587 8.86615 128.183 8.37819 128.973 8.01058L128.129 6.19742C127.063 6.69381 126.187 7.38985 125.533 8.29388L127.153 9.46612ZM128.986 8.00455C129.771 7.62565 130.629 7.432 131.575 7.432V5.432C130.345 5.432 129.187 5.68635 128.116 6.20345L128.986 8.00455ZM131.575 7.432C132.416 7.432 133.18 7.61373 133.881 7.97104L134.789 6.18896C133.794 5.68227 132.718 5.432 131.575 5.432V7.432ZM133.901 7.981C134.608 8.32125 135.144 8.79284 135.535 9.39853L137.215 8.31347C136.614 7.38316 135.79 6.67075 134.769 6.179L133.901 7.981ZM137.375 8.856V1.584H135.375V8.856H137.375ZM136.375 2.584H137.287V0.584H136.375V2.584ZM136.287 1.584V12.216H138.287V1.584H136.287ZM125.415 11.232C125.415 12.519 125.778 13.7117 126.495 14.7867L128.159 13.6773C127.66 12.9283 127.415 12.121 127.415 11.232H125.415ZM126.506 14.8035C127.216 15.8226 128.113 16.6381 129.191 17.2408L130.167 15.4952C129.357 15.0419 128.686 14.4334 128.148 13.6605L126.506 14.8035ZM129.208 17.2504C130.291 17.8277 131.403 18.136 132.535 18.136V16.136C131.779 16.136 130.987 15.9323 130.15 15.4856L129.208 17.2504ZM132.535 18.136C133.905 18.136 135.09 17.6642 136.001 16.6914L134.541 15.3246C134.044 15.8558 133.405 16.136 132.535 16.136V18.136ZM135.993 16.6996C136.959 15.691 137.351 14.2601 137.351 12.6H135.351C135.351 13.9799 135.023 14.821 134.549 15.3164L135.993 16.6996ZM137.351 12.6C137.351 12.1252 137.306 11.5666 137.222 10.9335L135.24 11.1945C135.316 11.7774 135.351 12.2428 135.351 12.6H137.351ZM137.222 10.9289C137.1 10.037 136.743 9.22831 136.17 8.51667L134.612 9.77133C134.967 10.2117 135.17 10.683 135.24 11.1991L137.222 10.9289ZM136.18 8.53006C135.634 7.82775 134.944 7.27696 134.126 6.87743L133.248 8.67457C133.806 8.94704 134.252 9.30824 134.602 9.75794L136.18 8.53006ZM134.134 6.88157C133.323 6.47608 132.458 6.272 131.551 6.272V8.272C132.148 8.272 132.707 8.40392 133.24 8.67043L134.134 6.88157ZM131.551 6.272C130.5 6.272 129.501 6.48505 128.565 6.91551L129.401 8.73249C130.065 8.42695 130.778 8.272 131.551 8.272V6.272ZM128.558 6.91876C127.648 7.34595 126.89 7.92944 126.316 8.68133L127.906 9.89467C128.26 9.43056 128.75 9.03805 129.408 8.72924L128.558 6.91876ZM126.316 8.68133C125.735 9.44308 125.415 10.3003 125.415 11.232H127.415C127.415 10.7877 127.559 10.3489 127.906 9.89467L126.316 8.68133ZM142.094 5.448L142.368 6.40961L142.381 6.40583L142.094 5.448ZM142.454 5.184L141.622 4.6293L141.613 4.64153L141.606 4.654L142.454 5.184ZM142.358 4.2L141.614 4.86896L141.649 4.90808L141.689 4.94329L142.358 4.2ZM141.422 4.152L142.174 4.8105L142.174 4.8105L141.422 4.152ZM141.494 5.28L140.725 5.92018L140.754 5.95503L140.786 5.98711L141.494 5.28ZM141.542 18L140.544 17.9288L140.468 19H141.542V18ZM141.542 6.264V5.264H140.424L140.548 6.37443L141.542 6.264ZM142.454 6.264L143.449 6.1645L143.359 5.264H142.454V6.264ZM142.454 18V19H143.374L143.45 18.083L142.454 18ZM142.381 6.40583C142.747 6.29604 143.079 6.07043 143.302 5.714L141.606 4.654C141.632 4.612 141.668 4.57171 141.712 4.5396C141.755 4.50843 141.79 4.49496 141.806 4.49017L142.381 6.40583ZM143.286 5.7387C143.482 5.44447 143.598 5.10165 143.598 4.728H141.598C141.598 4.70623 141.601 4.68266 141.608 4.66087C141.615 4.6397 141.622 4.629 141.622 4.6293L143.286 5.7387ZM143.598 4.728C143.598 4.22546 143.389 3.78283 143.027 3.4567L141.689 4.94329C141.678 4.93372 141.65 4.90458 141.627 4.8538C141.604 4.80219 141.598 4.75575 141.598 4.728H143.598ZM143.101 3.53103C142.813 3.21118 142.399 2.96 141.878 2.96V4.96C141.808 4.96 141.739 4.94267 141.682 4.91443C141.63 4.88835 141.609 4.86354 141.614 4.86896L143.101 3.53103ZM141.878 2.96C141.439 2.96 140.997 3.11914 140.669 3.4935L142.174 4.8105C142.133 4.85706 142.076 4.90086 142.008 4.92963C141.942 4.95713 141.893 4.96 141.878 4.96V2.96ZM140.669 3.4935C140.377 3.82742 140.254 4.23114 140.254 4.632H142.254C142.254 4.63375 142.253 4.6591 142.239 4.69835C142.225 4.73936 142.202 4.77867 142.174 4.8105L140.669 3.4935ZM140.254 4.632C140.254 5.11623 140.422 5.55654 140.725 5.92018L142.262 4.63982C142.255 4.63126 142.251 4.62609 142.251 4.62448C142.25 4.62297 142.25 4.62381 142.251 4.62668C142.252 4.62959 142.253 4.63252 142.254 4.6347C142.254 4.63681 142.254 4.6362 142.254 4.632H140.254ZM140.786 5.98711C140.972 6.17247 141.211 6.33427 141.506 6.41696C141.805 6.50071 142.101 6.48598 142.368 6.40952L141.819 4.48648C141.862 4.47402 141.946 4.46328 142.045 4.49104C142.141 4.51773 142.191 4.56353 142.201 4.57289L140.786 5.98711ZM142.539 18.0712C142.574 17.577 142.59 15.5407 142.59 12.048H140.59C140.59 15.5953 140.573 17.527 140.544 17.9288L142.539 18.0712ZM142.59 12.048C142.59 10.2631 142.586 8.88587 142.578 7.9177C142.57 6.98869 142.559 6.36313 142.535 6.15357L140.548 6.37443C140.547 6.3717 140.55 6.40173 140.554 6.48896C140.557 6.5676 140.56 6.6737 140.563 6.80916C140.569 7.07962 140.574 7.45402 140.578 7.9343C140.586 8.89413 140.59 10.2649 140.59 12.048H142.59ZM141.542 7.264H142.454V5.264H141.542V7.264ZM141.459 6.3635C141.458 6.36259 141.459 6.36513 141.459 6.37211C141.46 6.37884 141.46 6.38811 141.461 6.4003C141.462 6.42489 141.464 6.45734 141.466 6.49866C141.469 6.58139 141.472 6.69118 141.475 6.8297C141.481 7.10639 141.486 7.48597 141.49 7.97023C141.498 8.93811 141.502 10.3129 141.502 12.096H143.502C143.502 10.3111 143.498 8.92989 143.49 7.95377C143.482 7.01063 143.47 6.38275 143.449 6.1645L141.459 6.3635ZM141.502 12.096C141.502 15.6828 141.485 17.5872 141.457 17.917L143.45 18.083C143.487 17.6448 143.502 15.6132 143.502 12.096H141.502ZM142.454 17H141.542V19H142.454V17ZM155.97 8.112L155.11 8.6237L155.117 8.63502L155.97 8.112ZM157.098 17.88L157.992 18.3272L158.076 18.1601L158.093 17.9742L157.098 17.88ZM157.026 17.976L156.319 17.2689L156.319 17.2689L157.026 17.976ZM156.93 18L157.377 17.1056L157.251 17.0424L157.112 17.0167L156.93 18ZM156.282 17.88L156.464 16.8967L156.374 16.88H156.282V17.88ZM156.21 17.832L155.315 18.2792L155.315 18.2792L156.21 17.832ZM156.186 17.736L155.19 17.6484L155.186 17.6921V17.736H156.186ZM155.274 8.664L154.419 9.1836L154.424 9.19193L155.274 8.664ZM148.698 8.256L147.92 7.62798L147.918 7.62961L148.698 8.256ZM147.498 11.88L146.499 11.8274L146.498 11.8537V11.88H147.498ZM147.474 18V19H148.357L148.466 18.124L147.474 18ZM146.562 18L145.564 17.9288L145.488 19H146.562V18ZM146.562 6.264V5.264H145.444L145.568 6.37443L146.562 6.264ZM147.474 6.264L148.454 6.06788L148.294 5.264H147.474V6.264ZM147.498 8.448H146.498L148.374 8.9306L147.498 8.448ZM149.178 6.624L148.655 5.77163L148.646 5.77711L149.178 6.624ZM151.554 6.976C153.405 6.976 154.492 7.5847 155.111 8.62365L156.829 7.60035C155.752 5.79129 153.895 4.976 151.554 4.976V6.976ZM155.117 8.63502C155.842 9.81571 156.266 11.6483 156.266 14.256H158.266C158.266 11.4877 157.826 9.22429 156.822 7.58898L155.117 8.63502ZM156.266 14.256C156.266 15.4577 156.211 16.6342 156.102 17.7858L158.093 17.9742C158.208 16.7578 158.266 15.5183 158.266 14.256H156.266ZM156.203 17.4328C156.246 17.3471 156.294 17.2937 156.319 17.2689L157.733 18.6831C157.822 18.5943 157.917 18.4769 157.992 18.3272L156.203 17.4328ZM156.319 17.2689C156.385 17.2025 156.522 17.0892 156.735 17.0359C156.971 16.9769 157.199 17.0166 157.377 17.1056L156.483 18.8944C156.693 18.9994 156.952 19.0431 157.22 18.9761C157.466 18.9148 157.634 18.7815 157.733 18.6831L156.319 17.2689ZM157.112 17.0167L156.464 16.8967L156.1 18.8633L156.748 18.9833L157.112 17.0167ZM156.282 16.88C156.441 16.88 156.624 16.9226 156.794 17.036C156.958 17.1451 157.053 17.2822 157.104 17.3848L155.315 18.2792C155.383 18.4138 155.497 18.5749 155.685 18.7C155.879 18.8294 156.091 18.88 156.282 18.88V16.88ZM157.104 17.3848C157.149 17.4751 157.186 17.5952 157.186 17.736H155.186C155.186 17.9408 155.238 18.1249 155.315 18.2792L157.104 17.3848ZM157.182 17.8236C157.312 16.3486 157.378 15.0619 157.378 13.968H155.378C155.378 14.9861 155.316 16.2114 155.19 17.6484L157.182 17.8236ZM157.378 13.968C157.378 11.5432 157.004 9.55332 156.123 8.13607L154.424 9.19193C155.015 10.1427 155.378 11.6888 155.378 13.968H157.378ZM156.128 8.14442C155.177 6.58005 153.555 5.888 151.554 5.888V7.888C153.073 7.888 153.931 8.37995 154.419 9.18358L156.128 8.14442ZM151.554 5.888C150.082 5.888 148.845 6.48167 147.92 7.62798L149.476 8.88402C150.023 8.20633 150.689 7.888 151.554 7.888V5.888ZM147.918 7.62961C147.03 8.73485 146.587 10.1652 146.499 11.8274L148.496 11.9326C148.569 10.5548 148.925 9.56915 149.477 8.88239L147.918 7.62961ZM146.498 11.88V14.352H148.498V11.88H146.498ZM146.498 14.352C146.498 15.5034 146.496 16.3808 146.492 16.9854C146.49 17.2881 146.487 17.5198 146.484 17.6821C146.481 17.8792 146.477 17.9108 146.481 17.876L148.466 18.124C148.478 18.0252 148.482 17.8568 148.484 17.7179C148.487 17.5442 148.49 17.3039 148.492 16.9986C148.496 16.3872 148.498 15.5046 148.498 14.352H146.498ZM147.474 17H146.562V19H147.474V17ZM147.559 18.0712C147.594 17.577 147.61 15.5407 147.61 12.048H145.61C145.61 15.5953 145.593 17.527 145.564 17.9288L147.559 18.0712ZM147.61 12.048C147.61 10.2631 147.606 8.88587 147.598 7.9177C147.59 6.98869 147.579 6.36313 147.556 6.15357L145.568 6.37443C145.568 6.3717 145.57 6.40173 145.574 6.48896C145.577 6.5676 145.58 6.6737 145.583 6.80916C145.589 7.07962 145.594 7.45402 145.598 7.9343C145.606 8.89413 145.61 10.2649 145.61 12.048H147.61ZM146.562 7.264H147.474V5.264H146.562V7.264ZM146.493 6.46012C146.479 6.39028 146.479 6.34059 146.481 6.38213C146.482 6.39894 146.483 6.42878 146.485 6.47519C146.487 6.5669 146.49 6.70115 146.492 6.88099C146.496 7.23942 146.498 7.76106 146.498 8.448H148.498C148.498 7.75894 148.496 7.22858 148.492 6.85901C148.49 6.67485 148.487 6.5261 148.484 6.41581C148.482 6.36122 148.48 6.31031 148.478 6.26662C148.477 6.24766 148.472 6.15771 148.454 6.06788L146.493 6.46012ZM148.374 8.9306C148.732 8.27977 149.18 7.80367 149.709 7.47089L148.646 5.77711C147.8 6.30833 147.127 7.04823 146.622 7.96539L148.374 8.9306ZM149.701 7.47632C150.237 7.14726 150.846 6.976 151.554 6.976V4.976C150.502 4.976 149.526 5.23674 148.655 5.77168L149.701 7.47632Z" fill="#F8C1FE"/>
</svg>
