<svg width="160" height="60" viewBox="0 0 160 60" fill="none" xmlns="http://www.w3.org/2000/svg">
<rect width="160" height="60" rx="10" fill="#DFC4E1" fill-opacity="0.99"/>
<rect x="0.5" y="0.5" width="159" height="59" rx="9.5" stroke="#D0AED3" stroke-opacity="0.34"/>
<path d="M22.9798 15.68C23.1131 15.68 23.1798 15.7467 23.1798 15.88V17C23.1798 17.1333 23.1131 17.2 22.9798 17.2C20.5798 17.2533 18.4998 17.76 16.7398 18.72C15.0064 19.68 13.6598 21.04 12.6998 22.8C11.7664 24.5333 11.2998 26.5467 11.2998 28.84C11.2998 29.5067 11.3398 30.2 11.4198 30.92C11.6598 33.0267 12.3531 34.88 13.4998 36.48C14.6731 38.0533 16.1931 39.28 18.0598 40.16C19.9264 41.04 22.0331 41.48 24.3798 41.48C24.5931 41.48 24.6998 41.5467 24.6998 41.68V42.8C24.6998 42.9333 24.6064 43 24.4198 43C21.8064 43 19.4464 42.5067 17.3398 41.52C15.2598 40.5333 13.5664 39.1467 12.2598 37.36C10.9531 35.5467 10.1664 33.4533 9.89976 31.08C9.81976 30.3067 9.77976 29.5733 9.77976 28.88C9.77976 26.2933 10.3131 24.0133 11.3798 22.04C12.4731 20.0667 14.0064 18.5333 15.9798 17.44C17.9798 16.32 20.3131 15.7333 22.9798 15.68ZM39.0829 23.48C40.7096 23.48 42.1496 23.9067 43.4029 24.76C44.6562 25.6133 45.6296 26.8133 46.3229 28.36C47.0162 29.88 47.3629 31.6533 47.3629 33.68C47.3629 35.52 47.0162 37.1467 46.3229 38.56C45.6296 39.9467 44.6562 41.0267 43.4029 41.8C42.1496 42.5467 40.7096 42.92 39.0829 42.92C37.5362 42.92 36.1762 42.5467 35.0029 41.8C33.8296 41.0267 32.9096 39.9467 32.2429 38.56C31.6029 37.1467 31.2829 35.52 31.2829 33.68C31.2829 31.6533 31.6029 29.88 32.2429 28.36C32.9096 26.8133 33.8296 25.6133 35.0029 24.76C36.1762 23.9067 37.5362 23.48 39.0829 23.48ZM39.0829 25C37.8296 25 36.7229 25.36 35.7629 26.08C34.8296 26.8 34.0962 27.8267 33.5629 29.16C33.0562 30.4667 32.8029 31.9733 32.8029 33.68C32.8029 36 33.3762 37.8667 34.5229 39.28C35.6696 40.6933 37.1896 41.4 39.0829 41.4C41.1096 41.4 42.7362 40.6933 43.9629 39.28C45.2162 37.8667 45.8429 36 45.8429 33.68C45.8429 31.9733 45.5629 30.4667 45.0029 29.16C44.4429 27.8267 43.6429 26.8 42.6029 26.08C41.5896 25.36 40.4162 25 39.0829 25ZM67.8982 23.44C68.0315 23.44 68.0982 23.5067 68.0982 23.64L68.0182 24.76C68.0182 24.8933 67.9515 24.96 67.8182 24.96C67.5249 24.9333 67.0982 24.92 66.5382 24.92C64.4049 24.92 62.5382 25.2267 60.9382 25.84C59.3382 26.4267 58.0982 27.28 57.2182 28.4C56.3382 29.4933 55.8982 30.7867 55.8982 32.28C55.8982 34.0667 56.4049 35.6533 57.4182 37.04C58.4582 38.4 59.9115 39.4667 61.7782 40.24C63.6449 41.0133 65.8049 41.4133 68.2582 41.44C68.3915 41.44 68.4582 41.5067 68.4582 41.64V42.76C68.4582 42.8933 68.3915 42.96 68.2582 42.96C65.5115 42.9333 63.0849 42.48 60.9782 41.6C58.8982 40.6933 57.2715 39.44 56.0982 37.84C54.9515 36.24 54.3782 34.3867 54.3782 32.28C54.3782 30.4933 54.8715 28.9333 55.8582 27.6C56.8715 26.24 58.2849 25.2 60.0982 24.48C61.9115 23.76 64.0315 23.4 66.4582 23.4C67.0982 23.4 67.5782 23.4133 67.8982 23.44ZM79.9623 35C84.5756 39.6133 86.9756 41.9867 87.1623 42.12L86.0823 43.2C85.8956 43.0667 84.7889 42 82.7623 40C80.7356 37.9733 78.8956 36.12 77.2423 34.44V43.08L75.7223 43C75.7756 40.76 75.8023 38.72 75.8023 36.88C75.8023 32.3733 75.6823 27.08 75.4423 21L77.1223 20.8C77.1756 24.3733 77.2023 26.88 77.2023 28.32L77.2423 32.08C78.9223 30.48 80.7756 28.68 82.8023 26.68C84.8556 24.68 85.9356 23.6 86.0423 23.44L87.1223 24.48C86.9889 24.6667 85.8823 25.7733 83.8023 27.8C81.7489 29.8267 79.8823 31.64 78.2023 33.24L79.9623 35ZM104.764 49.32C104.871 49.3467 104.924 49.4267 104.924 49.56L104.764 50.68C104.764 50.7333 104.738 50.7733 104.684 50.8C104.631 50.8533 104.578 50.8667 104.524 50.84C101.058 50.2533 98.5778 48.4133 97.0844 45.32C95.5911 42.2533 94.8444 38.0667 94.8444 32.76C94.8444 30.36 94.9644 27.8 95.2044 25.08L94.0844 25.12V23.6L95.3644 23.56C95.4978 21.8533 95.7244 19.8667 96.0444 17.6C96.0978 17.36 96.1778 17.2533 96.2844 17.28L97.4044 17.44C97.5378 17.4933 97.5911 17.5733 97.5644 17.68C97.4311 18.72 97.3111 19.6533 97.2044 20.48C97.1244 21.3067 97.0444 22.04 96.9644 22.68C96.9644 22.8933 96.9378 23.1867 96.8844 23.56H98.4444C99.9644 23.56 100.804 23.5733 100.964 23.6V25.12C100.804 25.0933 99.9378 25.08 98.3644 25.08H96.7644C96.4978 28.28 96.3644 30.8933 96.3644 32.92C96.3644 38.1467 97.0444 42.0533 98.4044 44.64C99.7644 47.2533 101.884 48.8133 104.764 49.32ZM131.706 23.44C131.76 23.9733 131.786 27.2133 131.786 33.16C131.786 39.08 131.76 42.36 131.706 43H130.186C130.213 42.8133 130.226 41.6 130.226 39.36C129.56 40.5067 128.573 41.4133 127.266 42.08C125.96 42.72 124.333 43.04 122.386 43.04C121.506 43.04 120.546 42.96 119.506 42.8C117.933 42.56 116.573 42 115.426 41.12C114.28 40.2133 113.4 39.1067 112.786 37.8C112.2 36.4667 111.906 35.0267 111.906 33.48C111.906 31.6667 112.266 29.9867 112.986 28.44C113.733 26.8933 114.733 25.6667 115.986 24.76C117.24 23.8533 118.586 23.4 120.026 23.4C122.293 23.4 124.333 24.1067 126.146 25.52C127.986 26.9067 129.346 28.6533 130.226 30.76C130.226 26.0933 130.213 23.6533 130.186 23.44H131.706ZM119.626 41.24C120.64 41.3733 121.493 41.44 122.186 41.44C124.72 41.44 126.613 40.84 127.866 39.64C129.12 38.44 129.746 36.92 129.746 35.08C129.746 33.5067 129.306 31.9333 128.426 30.36C127.573 28.76 126.386 27.4533 124.866 26.44C123.373 25.4 121.72 24.88 119.906 24.88C118.76 24.88 117.68 25.2667 116.666 26.04C115.653 26.8133 114.84 27.8667 114.226 29.2C113.613 30.5067 113.306 31.92 113.306 33.44C113.306 34.6933 113.586 35.8933 114.146 37.04C114.706 38.16 115.466 39.1067 116.426 39.88C117.386 40.6267 118.453 41.08 119.626 41.24ZM139.752 22.08C140.018 22 140.218 21.8533 140.352 21.64C140.512 21.4 140.592 21.1467 140.592 20.88C140.592 20.5333 140.458 20.24 140.192 20C139.952 19.7333 139.685 19.6 139.392 19.6C139.072 19.6 138.818 19.7067 138.632 19.92C138.445 20.1333 138.352 20.4 138.352 20.72C138.352 21.12 138.485 21.48 138.752 21.8C139.045 22.0933 139.378 22.1867 139.752 22.08ZM138.832 43C138.885 42.2533 138.912 38.9467 138.912 33.08C138.912 27.1333 138.885 23.92 138.832 23.44H140.352C140.405 23.9733 140.432 27.2133 140.432 33.16C140.432 39.08 140.405 42.36 140.352 43H138.832ZM147.119 36.76C147.119 28.36 147.159 21.24 147.239 15.4L148.919 15.6C148.679 23.2 148.559 29.7867 148.559 35.36C148.559 37.6267 148.585 40.1733 148.639 43L147.119 43.12V36.76Z" fill="white"/>
</svg>
